# xmcd
#
# Track frame offsets: 
#        150
#        33183
#        67838
#        102613
#        136984
#        171981
#        205532
#        236053
#        274999
#        306494
#
# Disc length: 4558 seconds
#
# Revision: 2
# Processed by: cddbd v1.5.2PL0 Copyright (c) Steve Scherf et al.
# Submitted via: ExactAudioCopy v1.0b3
#
DISCID=8f11cc0a
DTITLE=Various Artist - D.Trance Vol. 33 - CD 2
DYEAR=2006
DGENRE=New Age
TTITLE0=Gary D. - Birthday Party
TTITLE1=7 Air - Outland (Original Mix)
TTITLE2=Nostrum and Frank Künne - Night In Motion (NP's Hypnotize Mix)
TTITLE3=Steve String - Greetz From (Original Mix)
TTITLE4=D and S - Madistral (Plus One Mix)
TTITLE5=Ferry Corsten - Star Traveller (Hydroid Vs. Zehavi and Rand Remi
TTITLE5=x)
TTITLE6=Ralph Novell - Discover (Original)
TTITLE7=Epos - Vivagio (Danjo and Styles Remix)
TTITLE8=JS Ten - Spiritualized (Basswizzards Remix)
TTITLE9=Tommy Pulse - Techno Riot (Third Movement)
EXTD=YEAR: 2006
EXTT0=
EXTT1=
EXTT2=
EXTT3=
EXTT4=
EXTT5=
EXTT6=
EXTT7=
EXTT8=
EXTT9=
PLAYORDER=
